<?xml version="1.0" encoding="UTF-8" standalone="no"?>
<!-- Created with Inkscape (http://www.inkscape.org/) -->

<svg
   xmlns:dc="http://purl.org/dc/elements/1.1/"
   xmlns:cc="http://creativecommons.org/ns#"
   xmlns:rdf="http://www.w3.org/1999/02/22-rdf-syntax-ns#"
   xmlns:svg="http://www.w3.org/2000/svg"
   xmlns="http://www.w3.org/2000/svg"
   xmlns:sodipodi="http://sodipodi.sourceforge.net/DTD/sodipodi-0.dtd"
   xmlns:inkscape="http://www.inkscape.org/namespaces/inkscape"
   version="1.1"
   id="svg2"
   xml:space="preserve"
   width="400"
   height="400"
   viewBox="0 0 400 400"
   sodipodi:docname="qrcode-vcard.svg"
   inkscape:export-filename="/home/sebastian/Documentos/personal/curriculum/qrcode-vcard.png"
   inkscape:export-xdpi="27.512505"
   inkscape:export-ydpi="27.512505"
   inkscape:version="0.92.3 (2405546, 2018-03-11)"><metadata
     id="metadata8"><rdf:RDF><cc:Work
         rdf:about=""><dc:format>image/svg+xml</dc:format><dc:type
           rdf:resource="http://purl.org/dc/dcmitype/StillImage" /><dc:title></dc:title></cc:Work></rdf:RDF></metadata><defs
     id="defs6" /><sodipodi:namedview
     pagecolor="#ffffff"
     bordercolor="#666666"
     borderopacity="1"
     objecttolerance="10"
     gridtolerance="10"
     guidetolerance="10"
     inkscape:pageopacity="0"
     inkscape:pageshadow="2"
     inkscape:window-width="1920"
     inkscape:window-height="1025"
     id="namedview4"
     showgrid="false"
     inkscape:zoom="0.59"
     inkscape:cx="200"
     inkscape:cy="200"
     inkscape:window-x="0"
     inkscape:window-y="27"
     inkscape:window-maximized="1"
     inkscape:current-layer="g10" /><g
     id="g10"
     inkscape:groupmode="layer"
     inkscape:label="ink_ext_XXXXXX"
     transform="matrix(1.3333333,0,0,-1.3333333,0,400)"><g
       id="g12"
       transform="scale(0.1)"><path
         d="m 191.488,2585.08 v -223.4 h 446.805 v 446.8 H 414.891 191.488 Z m 382.973,0 V 2425.51 H 255.316 v 319.15 h 159.575 159.57 v -159.58"
         style="fill:#000000;fill-opacity:1;fill-rule:nonzero;stroke:none"
         id="path14"
         inkscape:connector-curvature="0" /><path
         d="m 893.609,2744.66 v -63.83 h 63.829 v 127.65 h -31.915 -31.914 v -63.82"
         style="fill:#000000;fill-opacity:1;fill-rule:nonzero;stroke:none"
         id="path16"
         inkscape:connector-curvature="0" /><path
         d="m 1276.59,2744.66 v -63.83 h -63.84 v 63.83 h -63.82 -63.83 v -31.92 -31.91 h 63.83 63.82 V 2648.91 2617 h 31.92 31.92 v 31.91 31.92 h 31.91 31.91 v 63.83 63.82 h -31.91 -31.91 v -63.82"
         style="fill:#000000;fill-opacity:1;fill-rule:nonzero;stroke:none"
         id="path18"
         inkscape:connector-curvature="0" /><path
         d="m 1404.24,2776.57 v -31.91 h 63.83 v 63.82 h -31.91 -31.92 v -31.91"
         style="fill:#000000;fill-opacity:1;fill-rule:nonzero;stroke:none"
         id="path20"
         inkscape:connector-curvature="0" /><path
         d="m 1531.9,2744.66 v -63.83 H 1404.24 V 2617 h -31.91 -31.92 v -31.92 -31.91 h -95.74 -95.74 v -63.83 -63.83 h -31.92 -31.91 v -31.92 -31.91 h 31.91 31.92 v 31.91 31.92 h 31.91 31.91 v -31.92 -31.91 h 31.92 31.92 v 31.91 31.92 h 31.91 31.91 v -63.83 -63.83 h 31.92 31.91 v -31.91 -31.92 h 31.92 31.91 v -31.91 -31.92 h 31.91 31.92 v 31.92 31.91 h -31.92 -31.91 v 31.92 31.91 h -31.91 -31.92 v 95.74 95.75 h 31.92 31.91 v -63.83 -63.83 h 31.91 31.92 v -31.91 -31.92 h 31.92 31.91 v -31.91 -31.92 h 31.91 31.92 v -31.91 -31.92 h -31.92 -31.91 v -31.91 -31.92 h -95.75 -95.74 v 31.92 31.91 h -31.91 -31.92 v 31.92 31.91 h -63.82 -63.84 v 31.92 31.91 h -63.82 -63.83 v -31.91 -31.92 h -31.92 -31.91 v -31.91 -31.92 h -31.918 -31.914 v 31.92 31.91 h -31.915 -31.914 v 31.92 31.91 h -31.914 -31.914 v -63.83 -63.83 h 31.914 31.914 v -31.91 -31.92 h -31.914 -31.914 v -63.82 -63.83 h -31.918 -31.914 v -31.92 -31.91 h 63.832 63.828 v 95.74 95.74 h 63.829 63.832 v -31.91 -31.91 h 31.91 31.92 v -31.92 -31.91 h 31.91 31.92 v -63.83 -63.83 h -31.92 -31.91 v 31.91 31.92 h -31.92 -31.91 v 31.91 31.92 h -31.918 -31.914 v -31.92 -31.91 h 31.914 31.918 v -31.92 -31.91 h -31.918 -31.914 v -63.83 -63.83 h -63.829 -63.828 v 31.91 31.92 h 31.914 31.914 v 31.91 31.92 h -31.914 -31.914 v -31.92 -31.91 h -31.918 -31.914 v 31.91 31.92 h -31.914 -31.914 v -31.92 -31.91 h -63.828 -63.832 v -31.92 -31.91 h -31.914 -31.914 v -95.75 -95.74 h 31.914 31.914 v -31.92 -31.91 h -63.828 -63.828 v 31.91 31.92 h -31.914 -31.914 v 31.92 31.91 h 31.914 31.914 v 191.49 191.49 H 319.145 191.488 v -31.92 -31.91 h 63.828 63.829 v -31.92 -31.91 H 287.23 255.316 v -31.92 -31.91 h 31.914 31.915 v -31.92 -31.91 H 287.23 255.316 v -31.92 -31.91 h -31.914 -31.914 v -31.92 -31.91 h 63.828 63.829 v -31.91 -31.92 h -63.829 -63.828 v -63.83 -63.83 h 31.914 31.914 v 31.92 31.91 h 31.914 31.915 v 31.91 31.92 h 31.918 31.914 v -31.92 -31.91 h 31.914 31.914 v -31.91 -31.92 h -31.914 -31.914 v -31.91 -31.92 h -63.832 -63.829 v -31.91 -31.91 h 31.914 31.915 v -31.92 -31.92 h -63.829 -63.828 v -31.91 -31.91 h 63.828 63.829 v 31.91 31.91 h 31.918 31.914 v -31.91 -31.91 h 31.914 31.914 v -31.92 -31.91 h -63.828 -63.832 v -31.92 -31.91 H 287.23 255.316 v 31.91 31.92 h -31.914 -31.914 v -31.92 -31.91 h 31.914 31.914 v -31.918 -31.914 h 31.914 31.915 V 925.523 893.609 H 287.23 255.316 v -95.746 -95.742 h 63.829 63.832 v 31.914 31.914 h 31.914 31.914 v -31.914 -31.914 h 95.742 95.746 v 31.914 31.914 h 63.828 63.828 v 31.914 31.918 h 31.914 31.918 v 31.914 31.914 h -31.918 -31.914 v 31.914 31.915 h 95.746 95.743 v -31.915 -31.914 h 63.832 63.83 v 31.914 31.915 h 31.91 31.92 v -63.829 -63.828 h 31.91 31.91 v -31.918 -31.914 h -95.74 -95.74 v 31.914 31.918 h -31.918 -31.914 v -63.832 -63.828 h -31.915 -31.914 v 31.914 31.914 h -31.914 -31.914 v -31.914 -31.914 h -63.832 -63.828 v -63.828 -63.832 h 31.914 31.914 V 542.547 510.633 H 734.035 702.121 V 351.063 191.488 h 223.402 223.407 v 31.914 31.914 h -95.75 -95.742 v 31.914 31.915 h 127.662 127.65 v 31.918 31.914 h 31.92 31.92 v 31.914 31.914 h 63.82 63.83 v -31.914 -31.914 h -31.91 -31.92 v -31.914 -31.918 h 31.92 31.91 v 31.918 31.914 h 63.83 63.83 v -63.832 -63.829 h 31.92 31.91 v -31.914 -31.914 h 31.91 31.92 v 31.914 31.914 h 31.91 31.92 v -31.914 -31.914 h 95.74 95.75 v 31.914 31.914 h 31.91 31.92 v 63.829 63.832 h 31.91 31.92 v 31.914 31.914 h 31.91 31.91 V 319.145 191.488 h 31.92 31.91 v 31.914 31.914 h 63.83 63.83 v -31.914 -31.914 h 31.92 31.91 v 95.742 95.747 h -31.91 -31.92 v -31.914 -31.918 h -31.91 -31.92 v 63.832 63.828 h 127.66 127.66 v -31.914 -31.914 h -31.91 -31.92 v -31.914 -31.918 h 127.66 127.66 V 287.23 255.316 h -127.66 -127.66 v -31.914 -31.914 h 127.66 127.66 v 31.914 31.914 h 31.91 31.92 v 31.914 31.915 h -31.92 -31.91 v 63.832 63.828 H 2648.91 2617 v 63.828 63.828 h 31.91 31.92 v 95.746 95.742 h 31.91 31.92 v -63.828 -63.828 h 31.91 31.91 v 95.742 95.746 h -63.82 -63.83 v 31.914 31.914 h 31.91 31.92 v 63.829 63.832 h 31.91 31.91 v 31.91 31.92 h -31.91 -31.91 v 95.74 95.75 h 31.91 31.91 v 31.91 31.91 h -63.82 -63.83 v -31.91 -31.91 H 2617 2553.17 v 31.91 31.91 h -63.83 -63.83 v 63.83 63.83 h 31.92 31.91 v -31.91 -31.92 H 2617 2744.66 v 31.92 31.91 h 31.91 31.91 v 63.83 63.83 h -63.82 -63.83 v -63.83 -63.83 h -95.75 -95.74 v 31.91 31.92 h 63.83 63.83 v 63.83 63.83 h 31.91 31.92 v 31.91 31.92 H 2648.91 2617 v -31.92 -31.91 h -31.92 -31.91 v 63.83 63.83 h 31.91 31.92 v 95.74 95.75 h -63.83 -63.83 v 31.91 31.92 h 63.83 63.83 v 31.91 31.91 h 31.91 31.92 v -31.91 -31.91 h 31.91 31.92 v 31.91 31.91 h -31.92 -31.91 v 31.92 31.91 h 31.91 31.92 v 63.83 63.83 h -31.92 -31.91 v -63.83 -63.83 H 2648.91 2617 v 63.83 63.83 h -31.92 -31.91 v -31.91 -31.92 h -31.92 -31.91 v 31.92 31.91 h -31.91 -31.92 v -63.83 -63.83 h -31.92 -31.91 v 63.83 63.83 h -31.91 -31.92 v -31.91 -31.92 h -31.91 -31.92 v -63.83 -63.83 h 95.75 95.74 v 31.92 31.91 h 63.83 63.83 v -31.91 -31.92 h -31.92 -31.91 v -31.91 -31.91 h -31.91 -31.92 v -31.92 -31.91 h -31.92 -31.91 v 31.91 31.92 h -95.74 -95.75 v -63.83 -63.83 h -31.91 -31.92 v 31.91 31.92 h -31.91 -31.91 v 31.91 31.92 h -63.83 -63.83 v 31.91 31.91 h 63.83 63.83 v 63.83 63.83 h 63.82 63.83 v 95.75 95.74 h -31.91 -31.92 v 63.83 63.83 h -31.91 -31.91 v 31.91 31.92 h -63.83 -63.83 v -31.92 -31.91 h 63.83 63.83 v -31.92 -31.91 h -63.83 -63.83 v -31.91 -31.92 h -31.92 -31.91 v -31.92 -31.91 h 31.91 31.92 v 31.91 31.92 h 31.91 31.92 v -31.92 -31.91 h 31.91 31.92 v 31.91 31.92 h 31.91 31.91 v -63.83 -63.83 h -31.91 -31.91 v -31.91 -31.92 h -31.92 -31.91 v 31.92 31.91 h -95.75 -95.74 v 95.74 95.75 h 31.91 31.92 v 63.83 63.83 h -63.83 -63.83 v -31.92 -31.91 h -31.92 -31.91 v -31.92 -31.91 h 31.91 31.92 v -63.83 -63.83 h -31.92 -31.91 v 31.91 31.92 h -31.92 -31.91 v -31.92 -31.91 h -31.91 -31.92 v 63.83 63.83 h 31.92 31.91 v 31.91 31.92 h -63.83 -63.83 v 31.91 31.92 h 95.75 95.74 v 31.91 31.92 h -31.92 -31.91 v 63.83 63.82 h -31.91 -31.92 z m 255.32,-223.41 v -31.91 h -63.83 v 63.83 h 31.91 31.92 z m -510.63,-63.82 v -31.92 h -63.84 v 63.83 h 31.92 31.92 z m 382.97,-127.66 v -31.92 h 63.83 v -63.83 h 31.91 31.92 v -63.83 -63.83 h 31.91 31.92 v -31.91 -31.91 h 31.91 31.92 v -31.92 -31.91 h 31.91 31.92 v -31.92 -31.91 h 31.91 31.92 v -31.92 -31.91 h 31.91 31.91 v -31.92 -31.91 h -63.82 -63.83 v 63.83 63.83 h -63.83 -63.83 v 63.83 63.83 h -31.92 -31.91 v -63.83 -63.83 h -31.92 -31.91 v -31.92 -31.91 h -63.83 -63.83 v 63.83 63.83 h -127.66 -127.66 v -31.92 -31.91 h -31.91 -31.91 v 63.83 63.83 h -31.92 -31.92 v 31.91 31.91 h 63.84 63.82 v -31.91 -31.91 h 127.66 127.66 v 31.91 31.91 h 31.91 31.92 v 31.92 31.91 h 31.91 31.92 v 31.92 31.91 h -31.92 -31.91 v 31.92 31.91 h -31.92 -31.91 v 31.92 31.91 h 31.91 31.92 z m -446.81,-127.66 v -31.92 h -63.82 v 63.83 h 31.91 31.91 z m 765.96,0 v -31.92 h -127.66 v 63.83 h 63.83 63.83 z m -829.78,-127.66 v -31.91 h -63.83 v 63.82 h 31.91 31.92 z m 1212.75,-127.66 v -31.91 h 63.83 v 63.83 h 31.92 31.91 v -31.92 -31.91 h -31.91 -31.92 v -31.92 -31.91 h 63.83 63.83 v -31.92 -31.91 h -63.83 -63.83 v -95.75 -95.74 h 31.92 31.91 v -31.91 -31.92 h -31.91 -31.92 v -31.92 -31.91 h -31.92 -31.91 v -31.91 -31.92 h -31.91 -31.92 v -31.91 -31.92 h -63.83 -63.83 v -31.91 -31.91 h 31.92 31.91 v -63.84 -63.82 h 31.92 31.91 v 63.82 63.84 h 95.74 95.75 v -31.92 -31.92 h -31.91 -31.92 v -63.82 -63.83 h 31.92 31.91 v 31.91 31.92 h 63.83 63.83 v -31.92 -31.91 h 31.91 31.92 v -31.92 -31.91 H 2617 2553.17 v -31.918 -31.914 h 31.91 31.92 v -63.829 -63.828 h 31.91 31.92 V 797.863 765.949 H 2648.91 2617 v -95.742 -95.746 h -31.92 -31.91 v 191.488 191.489 h -31.92 -31.91 v -31.915 -31.914 h -31.91 -31.92 v -31.914 -31.914 h -95.74 -95.75 v -63.832 -63.828 h -31.91 -31.92 v -31.914 -31.914 h 31.92 31.91 v -31.914 -31.918 h -31.91 -31.92 v 31.918 31.914 h -31.91 -31.92 v 31.914 31.914 h 31.92 31.91 v 63.828 63.832 h -31.91 -31.92 v -31.918 -31.914 h -31.91 -31.91 v -31.914 -31.914 h -31.92 -31.91 v 31.914 31.914 h 31.91 31.92 v 31.914 31.918 h -31.92 -31.91 v 31.914 31.914 h -31.92 -31.91 v -31.914 -31.914 h -31.92 -31.91 v -31.918 -31.914 h -31.92 -31.91 v -31.914 -31.914 h 63.83 63.83 v -31.914 -31.914 h -31.92 -31.91 v -63.832 -63.828 h -63.83 -63.83 v -31.914 -31.914 h 63.83 63.83 v -63.828 -63.832 h 31.91 31.92 V 287.23 255.316 h -63.83 -63.83 v 31.914 31.915 h -95.75 -95.74 v 31.918 31.914 h -31.91 -31.92 v 63.828 63.828 h -31.92 -31.91 v -31.914 -31.914 h -31.91 -31.92 v 63.828 63.828 h -31.91 -31.92 v -31.914 -31.914 h -95.74 -95.74 v -31.914 -31.914 h -63.83 -63.83 v -31.914 -31.914 h -63.832 -63.829 v 31.914 31.914 h -63.828 -63.832 v 31.914 31.914 h 31.914 31.918 v 31.914 31.914 h -31.918 -31.914 v 31.918 31.914 h 31.914 31.918 v -31.914 -31.918 h 31.914 31.914 v 31.918 31.914 h 31.914 31.915 v 31.914 31.914 h 127.662 127.65 v -31.914 -31.914 h -31.91 -31.91 v -31.914 -31.918 h 63.82 63.84 v 63.832 63.828 h 31.91 31.91 v 31.914 31.914 h -31.91 -31.91 v 31.914 31.918 h -31.92 -31.92 v 31.914 31.914 h 31.92 31.92 v 31.914 31.915 h -31.92 -31.92 v 31.914 31.918 h 31.92 31.92 v 31.91 31.92 h -31.92 -31.92 v 31.91 31.92 h -63.82 -63.83 v 31.91 31.91 h 63.83 63.82 v 31.92 31.92 h -31.91 -31.91 v 31.91 31.91 h -31.92 -31.91 v -31.91 -31.91 h -63.83 -63.832 v 31.91 31.91 h 63.832 63.83 v 31.92 31.91 H 925.523 765.949 v 31.92 31.91 h 31.914 31.918 v 31.91 31.92 h 31.914 31.914 v 31.92 31.91 h -63.828 -63.832 v -31.91 -31.92 h -31.914 -31.914 v 63.83 63.83 h -63.828 -63.832 v 31.91 31.92 h 63.832 63.828 v -31.92 -31.91 h 31.914 31.914 v 31.91 31.92 h 31.914 31.918 v -31.92 -31.91 h 63.828 63.829 v 31.91 31.92 h 127.662 127.65 v 63.83 63.83 h 95.75 95.74 v 31.91 31.92 h 63.83 63.83 v -31.92 -31.91 h -63.83 -63.83 v -63.83 -63.83 h 31.92 31.91 v 31.91 31.92 h 63.83 63.83 v -31.92 -31.91 h -63.83 -63.83 v -31.92 -31.91 h 63.83 63.83 v -31.92 -31.91 h -31.91 -31.92 v -31.91 -31.92 h 31.92 31.91 v -31.92 -31.91 h 31.91 31.92 v -31.91 -31.92 h 31.91 31.92 v 31.92 31.91 h 63.83 63.83 v -95.74 -95.74 h -31.92 -31.91 v -31.92 -31.92 h 127.66 127.66 v -31.91 -31.91 h 63.82 63.83 v 63.82 63.84 h -63.83 -63.82 v 31.91 31.91 h -31.92 -31.91 v 31.92 31.91 h -31.92 -31.91 v 95.74 95.75 h 31.91 31.92 v 31.91 31.92 h 31.91 31.92 v 31.91 31.92 h 95.74 95.74 v 31.91 31.92 h -31.91 -31.92 v 63.83 63.83 h 31.92 31.91 v 31.91 31.92 h 63.83 63.83 z M 1085.1,1819.13 v -31.91 h -63.83 v 63.83 h 31.91 31.92 z m 829.78,0 v -31.91 h -127.66 v -191.49 h 31.91 31.92 v -31.91 -31.92 h -31.92 -31.91 v 31.92 31.91 h -63.83 -63.83 v 95.74 95.75 h 63.83 63.83 v 31.91 31.92 h 63.83 63.83 z m 0,-127.66 v -31.91 h -63.83 v 63.83 h 31.91 31.92 z M 638.293,1563.82 v -31.92 h -63.832 v 63.83 h 31.918 31.914 z m 0,-127.66 v -31.92 h -63.832 v -63.83 h 127.66 127.66 v -31.91 -31.91 h -63.832 -63.828 v -31.92 -31.92 h 31.914 31.914 v -31.91 -31.91 h 95.746 95.743 v 31.91 31.91 h 31.914 31.918 v -63.82 -63.83 h -31.918 -31.914 v -31.92 -31.91 h 63.832 63.83 v 31.91 31.92 h 31.91 31.92 v -31.92 -31.91 h -31.92 -31.91 v -31.918 -31.914 h -63.83 -63.832 v 31.914 31.918 h -31.915 -31.914 v 31.91 31.92 h -63.828 -63.832 v -31.92 -31.91 h -31.914 -31.914 v -95.747 -95.742 h -31.914 -31.914 v -31.918 -31.914 h -63.832 -63.828 v 31.914 31.918 h -31.914 -31.914 v 31.914 31.914 h -31.914 -31.914 v -31.914 -31.914 h -31.914 -31.918 v 31.914 31.914 h 31.918 31.914 v 31.914 31.915 h 31.914 31.914 v -31.915 -31.914 h 63.828 63.828 v 31.914 31.915 h -31.914 -31.914 v 31.914 31.918 h -31.914 -31.914 v 31.91 31.92 h 31.914 31.914 v 31.91 31.92 h -31.914 -31.914 v 31.91 31.91 h -31.914 -31.914 v 31.92 31.92 h 31.914 31.914 v 31.91 31.91 h 31.914 31.914 v 31.92 31.91 h 31.914 31.914 v 31.92 31.91 h 31.918 31.914 z M 2489.34,606.379 v -95.746 h -191.49 v 191.488 h 95.74 95.75 z m -446.8,0 v -31.918 h 63.82 v -63.828 h 63.83 63.83 v -31.914 -31.914 h -63.83 -63.83 v 31.914 31.914 h -63.82 -63.83 v -63.828 -63.828 h -31.92 -31.91 v 95.742 95.742 h 31.91 31.92 v 31.918 31.914 h 31.91 31.92 z M 2617,414.891 v -31.914 h -63.83 v 63.828 h 31.91 31.92 z M 829.781,351.063 v -31.918 h 63.828 v -63.829 h -31.914 -31.914 v 31.914 31.915 h -31.918 -31.914 v 31.918 31.914 h 31.914 31.918 v -31.914"
         style="fill:#000000;fill-opacity:1;fill-rule:nonzero;stroke:none"
         id="path22"
         inkscape:connector-curvature="0" /><path
         d="m 1659.56,2776.57 v -31.91 h 63.83 v 63.82 h -31.92 -31.91 v -31.91"
         style="fill:#000000;fill-opacity:1;fill-rule:nonzero;stroke:none"
         id="path24"
         inkscape:connector-curvature="0" /><path
         d="m 1787.22,2744.66 v -63.83 h 63.83 v 127.65 h -31.92 -31.91 v -63.82"
         style="fill:#000000;fill-opacity:1;fill-rule:nonzero;stroke:none"
         id="path26"
         inkscape:connector-curvature="0" /><path
         d="m 1978.71,2776.57 v -31.91 h -63.83 v -63.83 h 95.74 95.74 V 2648.91 2617 h 31.92 31.91 v -31.92 -31.91 h 31.92 31.91 v 31.91 31.92 h 31.92 31.91 v 95.74 95.74 h -31.91 -31.92 v -63.82 -63.83 h -31.91 -31.92 v 63.83 63.82 h -95.74 -95.74 v -31.91"
         style="fill:#000000;fill-opacity:1;fill-rule:nonzero;stroke:none"
         id="path28"
         inkscape:connector-curvature="0" /><path
         d="m 2361.68,2585.08 v -223.4 h 446.8 v 446.8 h -223.4 -223.4 z m 382.98,0 v -159.57 h -319.15 v 319.15 h 159.57 159.58 v -159.58"
         style="fill:#000000;fill-opacity:1;fill-rule:nonzero;stroke:none"
         id="path30"
         inkscape:connector-curvature="0" /><path
         d="m 702.121,2712.74 v -31.91 h 127.66 v 63.83 h -63.832 -63.828 v -31.92"
         style="fill:#000000;fill-opacity:1;fill-rule:nonzero;stroke:none"
         id="path32"
         inkscape:connector-curvature="0" /><path
         d="m 702.121,2585.08 v -31.91 h 63.828 v -63.83 h -31.914 -31.914 v -63.83 -63.83 h 31.914 31.914 v 63.83 63.83 h 63.832 63.828 v -31.91 -31.92 h -31.914 -31.914 v -31.92 -31.91 h 31.914 31.914 v 31.91 31.92 h 31.914 31.915 v -31.92 -31.91 h 31.914 31.918 v 31.91 31.92 h -31.918 -31.914 v 31.92 31.91 h -31.915 -31.914 v 31.91 31.92 h 63.829 63.832 v 31.91 31.92 h -63.832 -63.829 v -31.92 -31.91 h -63.828 -63.832 v 31.91 31.92 h -31.914 -31.914 v -31.92"
         style="fill:#000000;fill-opacity:1;fill-rule:nonzero;stroke:none"
         id="path34"
         inkscape:connector-curvature="0" /><path
         d="m 2234.02,2425.51 v -63.83 h 63.83 v 127.66 h -31.91 -31.92 v -63.83"
         style="fill:#000000;fill-opacity:1;fill-rule:nonzero;stroke:none"
         id="path36"
         inkscape:connector-curvature="0" /><path
         d="m 191.488,2170.19 v -127.65 h 63.828 v 63.82 h 31.914 31.915 v -31.91 -31.91 h 31.918 31.914 v 31.91 31.91 h 31.914 31.914 v 31.92 31.91 h -95.742 -95.747 v 31.92 31.91 h 127.661 127.656 v 31.92 31.91 H 351.063 191.488 v -127.66"
         style="fill:#000000;fill-opacity:1;fill-rule:nonzero;stroke:none"
         id="path38"
         inkscape:connector-curvature="0" /><path
         d="m 574.461,2265.94 v -31.92 h 63.832 v -63.83 h -63.832 -63.828 v -159.57 -159.57 h 63.828 63.832 v 31.91 31.92 h 31.914 31.914 v 31.91 31.92 h -31.914 -31.914 v 31.91 31.92 h 63.828 63.828 v 31.91 31.91 h -63.828 -63.828 v 31.92 31.91 h 31.914 31.914 v 31.92 31.91 h 31.914 31.914 v 31.92 31.91 h -95.742 -95.746 z m 63.832,-191.49 v -31.91 h -63.832 v 63.82 h 31.918 31.914 z m 0,-127.66 v -31.91 h -63.832 v 63.83 h 31.918 31.914 v -31.92"
         style="fill:#000000;fill-opacity:1;fill-rule:nonzero;stroke:none"
         id="path40"
         inkscape:connector-curvature="0" /><path
         d="m 2680.83,1946.79 v -31.91 h 63.83 v 63.83 h -31.92 -31.91 v -31.92"
         style="fill:#000000;fill-opacity:1;fill-rule:nonzero;stroke:none"
         id="path42"
         inkscape:connector-curvature="0" /><path
         d="M 191.488,414.891 V 191.488 H 638.293 V 638.293 H 414.891 191.488 Z m 382.973,0 V 255.316 H 255.316 v 319.145 h 159.575 159.57 v -159.57"
         style="fill:#000000;fill-opacity:1;fill-rule:nonzero;stroke:none"
         id="path44"
         inkscape:connector-curvature="0" /><path
         d="m 2744.66,414.891 v -31.914 h 63.82 v 63.828 h -31.91 -31.91 v -31.914"
         style="fill:#000000;fill-opacity:1;fill-rule:nonzero;stroke:none"
         id="path46"
         inkscape:connector-curvature="0" /><path
         d="m 1212.75,223.402 v -31.914 h 127.66 v 63.828 h -63.82 -63.84 v -31.914"
         style="fill:#000000;fill-opacity:1;fill-rule:nonzero;stroke:none"
         id="path48"
         inkscape:connector-curvature="0" /><path
         d="m 1404.24,223.402 v -31.914 h 63.83 v 63.828 h -31.91 -31.92 v -31.914"
         style="fill:#000000;fill-opacity:1;fill-rule:nonzero;stroke:none"
         id="path50"
         inkscape:connector-curvature="0" /><path
         d="m 319.145,2585.08 v -95.74 h 191.488 v 191.49 h -95.742 -95.746 v -95.75"
         style="fill:#000000;fill-opacity:1;fill-rule:nonzero;stroke:none"
         id="path52"
         inkscape:connector-curvature="0" /><path
         d="m 1659.56,2074.45 v -31.91 h -63.83 v -63.83 h 31.91 31.92 v -31.92 -31.91 h 31.91 31.92 v 31.91 31.92 h -31.92 -31.91 v 31.91 31.92 h 63.83 63.83 v 31.91 31.91 h -63.83 -63.83 v -31.91"
         style="fill:#000000;fill-opacity:1;fill-rule:nonzero;stroke:none"
         id="path54"
         inkscape:connector-curvature="0" /><path
         d="m 2297.85,1787.22 v -63.83 h -63.83 v -127.66 h -31.91 -31.92 v 31.91 31.92 h -63.83 -63.82 v -31.92 -31.91 h 31.91 31.91 v -31.91 -31.92 h 63.83 63.83 v -31.92 -31.91 h -63.83 -63.83 v -31.91 -31.92 h -31.91 -31.91 v 63.83 63.83 h -31.92 -31.91 v -63.83 -63.83 h 31.91 31.92 v -31.91 -31.92 h 63.82 63.83 v 31.92 31.91 h 31.92 31.91 v 31.92 31.91 h 63.83 63.83 v 63.83 63.83 h -31.91 -31.92 v 31.91 31.92 h 31.92 31.91 v 95.74 95.75 h -31.91 -31.92 z m 0,-223.4 v -31.92 h -63.83 v 63.83 h 31.92 31.91 v -31.91"
         style="fill:#000000;fill-opacity:1;fill-rule:nonzero;stroke:none"
         id="path56"
         inkscape:connector-curvature="0" /><path
         d="m 1276.59,1755.3 v -31.91 h -63.84 v -63.83 h -31.91 -31.91 v -31.92 -31.91 h -31.92 -31.91 v -31.91 -31.92 h 63.83 63.82 v 31.92 31.91 h 31.92 31.92 v 63.83 63.83 h 31.91 31.91 v -31.92 -31.91 h 31.92 31.91 v 31.91 31.92 h -31.91 -31.92 v 31.91 31.92 h -31.91 -31.91 v -31.92"
         style="fill:#000000;fill-opacity:1;fill-rule:nonzero;stroke:none"
         id="path58"
         inkscape:connector-curvature="0" /><path
         d="m 957.438,1627.64 v -31.91 h 63.832 v 63.83 h -31.918 -31.914 v -31.92"
         style="fill:#000000;fill-opacity:1;fill-rule:nonzero;stroke:none"
         id="path60"
         inkscape:connector-curvature="0" /><path
         d="m 1404.24,1531.9 v -63.83 h -63.83 v -63.83 h 63.83 63.83 v 95.74 95.75 h -31.91 -31.92 v -63.83"
         style="fill:#000000;fill-opacity:1;fill-rule:nonzero;stroke:none"
         id="path62"
         inkscape:connector-curvature="0" /><path
         d="m 957.438,1499.98 v -31.91 h 63.832 v 63.83 h -31.918 -31.914 v -31.92"
         style="fill:#000000;fill-opacity:1;fill-rule:nonzero;stroke:none"
         id="path64"
         inkscape:connector-curvature="0" /><path
         d="m 1085.1,1436.16 v -31.92 h 63.83 v -63.83 h 63.82 63.84 v 63.83 63.83 h -95.75 -95.74 v -31.91"
         style="fill:#000000;fill-opacity:1;fill-rule:nonzero;stroke:none"
         id="path66"
         inkscape:connector-curvature="0" /><path
         d="m 1531.9,1436.16 v -31.92 h 63.83 v 63.83 h -31.91 -31.92 v -31.91"
         style="fill:#000000;fill-opacity:1;fill-rule:nonzero;stroke:none"
         id="path68"
         inkscape:connector-curvature="0" /><path
         d="m 1723.39,1340.41 v -63.82 h -63.83 v 63.82 h -63.83 -63.83 v -31.91 -31.91 h 31.92 31.91 v -63.84 -63.82 h -31.91 -31.92 v -31.92 -31.91 h -95.74 -95.75 v 31.91 31.92 h 31.92 31.91 v 31.91 31.91 h -31.91 -31.92 v 31.92 31.92 h -31.91 -31.91 v -31.92 -31.92 h -31.92 -31.92 v -31.91 -31.91 h 31.92 31.92 v -31.92 -31.91 h 31.91 31.91 v -31.92 -31.91 h 31.92 31.91 v -31.918 -31.914 h -31.91 -31.92 v -31.915 -31.914 h -31.91 -31.91 v -31.914 -31.914 h 31.91 31.91 v -31.918 -31.914 h 31.92 31.91 v 63.832 63.828 h 31.92 31.91 v -63.828 -63.832 h 63.83 63.83 v -31.914 -31.914 h -127.66 -127.66 v -31.914 -31.914 h 63.83 63.83 v -31.914 -31.918 h 31.91 31.92 v -31.914 -31.914 h 31.92 31.91 v -31.914 -31.914 h 31.91 31.92 v -31.914 -31.914 h 31.91 31.92 v 31.914 31.914 h -31.92 -31.91 v 31.914 31.914 h -31.92 -31.91 v 31.914 31.914 h 31.91 31.92 v 31.918 31.914 h 31.91 31.92 v 31.914 31.914 h -31.92 -31.91 v 31.914 31.914 h 63.83 63.83 v 31.914 31.918 h -63.83 -63.83 v 31.914 31.914 h 31.91 31.92 v 31.914 31.915 h 31.91 31.92 v -31.915 -31.914 h 31.91 31.92 v 31.914 31.915 h 31.91 31.92 v 63.832 63.83 h 31.91 31.92 v -95.748 -95.743 h 31.91 31.92 v -31.914 -31.914 h 31.91 31.91 v 63.828 63.829 h 31.92 31.91 v -31.915 -31.914 h 31.92 31.91 v 31.914 31.915 h 63.83 63.83 v -31.915 -31.914 h 31.91 31.92 v 31.914 31.915 h 31.92 31.91 v 31.914 31.918 h 31.91 31.92 v 31.91 31.92 h -31.92 -31.91 v -31.92 -31.91 h -31.91 -31.92 v 31.91 31.92 h -31.92 -31.91 v -31.92 -31.91 h -63.83 -63.83 v 31.91 31.92 h -63.83 -63.83 v -31.92 -31.91 h -31.91 -31.91 v 31.91 31.92 h -31.92 -31.91 v 31.91 31.92 h -31.92 -31.91 v -31.92 -31.91 h -31.92 -31.91 v 31.91 31.92 h -31.92 -31.91 v 31.91 31.91 h -31.92 -31.91 v 31.92 31.92 h 31.91 31.92 v 63.82 63.83 h -31.92 -31.91 z m 0,-223.4 v -31.91 h -127.66 v 63.83 h 63.83 63.83 z m 127.66,-63.83 v -31.91 h -63.83 v 63.83 h 31.91 31.92 z m -255.32,-63.828 v -31.914 h -127.66 v 63.832 h 63.83 63.83 z m 127.66,0 v -31.914 h -63.83 v 63.832 h 31.91 31.92 z m 510.63,0 v -31.914 h -63.83 v 63.832 h 31.92 31.91 z m 191.49,0 v -31.914 h -63.83 v 63.832 h 31.91 31.92 z M 1659.56,797.863 v -31.914 h -63.83 v 63.832 h 31.91 31.92 z m 0,-127.656 v -31.914 h -63.83 v 63.828 h 31.91 31.92 v -31.914"
         style="fill:#000000;fill-opacity:1;fill-rule:nonzero;stroke:none"
         id="path70"
         inkscape:connector-curvature="0" /><path
         d="m 1404.24,1308.5 v -31.91 h 63.83 v 63.82 h -31.91 -31.92 v -31.91"
         style="fill:#000000;fill-opacity:1;fill-rule:nonzero;stroke:none"
         id="path72"
         inkscape:connector-curvature="0" /><path
         d="m 1085.1,542.547 v -31.914 h 63.83 v 63.828 h -31.92 -31.91 v -31.914"
         style="fill:#000000;fill-opacity:1;fill-rule:nonzero;stroke:none"
         id="path74"
         inkscape:connector-curvature="0" /><path
         d="m 957.438,478.719 v -31.914 h 63.832 v 63.828 h -31.918 -31.914 v -31.914"
         style="fill:#000000;fill-opacity:1;fill-rule:nonzero;stroke:none"
         id="path76"
         inkscape:connector-curvature="0" /><path
         d="m 510.633,1244.67 v -31.92 h 127.66 v 63.84 h -63.832 -63.828 v -31.92"
         style="fill:#000000;fill-opacity:1;fill-rule:nonzero;stroke:none"
         id="path78"
         inkscape:connector-curvature="0" /><path
         d="m 574.461,1117.01 v -31.91 h -63.828 v -63.83 h 31.914 31.914 v -31.918 -31.914 h 31.918 31.914 v 31.914 31.918 h 31.914 31.914 v 31.91 31.92 h -31.914 -31.914 v 31.91 31.92 h -31.914 -31.918 z m 63.832,-63.83 v -31.91 h -63.832 v 63.83 h 31.918 31.914 v -31.92"
         style="fill:#000000;fill-opacity:1;fill-rule:nonzero;stroke:none"
         id="path80"
         inkscape:connector-curvature="0" /><path
         d="m 574.461,861.695 v -31.914 h 63.832 v 63.828 h -31.914 -31.918 v -31.914"
         style="fill:#000000;fill-opacity:1;fill-rule:nonzero;stroke:none"
         id="path82"
         inkscape:connector-curvature="0" /><path
         d="m 2361.68,606.379 v -31.918 h 63.83 v 63.832 h -31.92 -31.91 v -31.914"
         style="fill:#000000;fill-opacity:1;fill-rule:nonzero;stroke:none"
         id="path84"
         inkscape:connector-curvature="0" /><path
         d="m 2489.34,2585.08 v -95.74 h 191.49 v 191.49 h -95.75 -95.74 v -95.75"
         style="fill:#000000;fill-opacity:1;fill-rule:nonzero;stroke:none"
         id="path86"
         inkscape:connector-curvature="0" /><path
         d="M 319.145,414.891 V 319.145 H 510.633 V 510.633 H 414.891 319.145 V 414.891"
         style="fill:#000000;fill-opacity:1;fill-rule:nonzero;stroke:none"
         id="path88"
         inkscape:connector-curvature="0" /></g></g></svg>