<?xml version="1.0" encoding="UTF-8" standalone="no"?>
<!-- Created with Inkscape (http://www.inkscape.org/) -->

<svg
   xmlns:dc="http://purl.org/dc/elements/1.1/"
   xmlns:cc="http://creativecommons.org/ns#"
   xmlns:rdf="http://www.w3.org/1999/02/22-rdf-syntax-ns#"
   xmlns:svg="http://www.w3.org/2000/svg"
   xmlns="http://www.w3.org/2000/svg"
   xmlns:sodipodi="http://sodipodi.sourceforge.net/DTD/sodipodi-0.dtd"
   xmlns:inkscape="http://www.inkscape.org/namespaces/inkscape"
   version="1.1"
   id="svg90"
   xml:space="preserve"
   width="400"
   height="400"
   viewBox="0 0 400 400"
   sodipodi:docname="qrcode.svg"
   inkscape:version="0.92.3 (2405546, 2018-03-11)"
   inkscape:export-filename="/home/sebastian/Documentos/personal/curriculum/qrcode.png"
   inkscape:export-xdpi="29.760057"
   inkscape:export-ydpi="29.760057"><metadata
     id="metadata96"><rdf:RDF><cc:Work
         rdf:about=""><dc:format>image/svg+xml</dc:format><dc:type
           rdf:resource="http://purl.org/dc/dcmitype/StillImage" /><dc:title></dc:title></cc:Work></rdf:RDF></metadata><defs
     id="defs94" /><sodipodi:namedview
     pagecolor="#ffffff"
     bordercolor="#666666"
     borderopacity="1"
     objecttolerance="10"
     gridtolerance="10"
     guidetolerance="10"
     inkscape:pageopacity="0"
     inkscape:pageshadow="2"
     inkscape:window-width="1920"
     inkscape:window-height="1025"
     id="namedview92"
     showgrid="false"
     inkscape:zoom="0.59"
     inkscape:cx="200"
     inkscape:cy="200"
     inkscape:window-x="0"
     inkscape:window-y="27"
     inkscape:window-maximized="1"
     inkscape:current-layer="g98" /><g
     id="g98"
     inkscape:groupmode="layer"
     inkscape:label="ink_ext_XXXXXX"
     transform="matrix(1.3333333,0,0,-1.3333333,0,400)"><g
       id="g100"
       transform="scale(0.1)"><path
         d="m 290.32,2370.96 v -338.71 h 677.418 v 677.42 H 629.031 290.32 Z m 580.645,0 V 2129.03 H 387.098 v 483.87 h 241.933 241.934 v -241.94"
         style="fill:#000000;fill-opacity:1;fill-rule:nonzero;stroke:none"
         id="path102"
         inkscape:connector-curvature="0" /><path
         d="m 1161.29,2661.29 v -48.39 h -96.77 v -96.77 h 48.38 48.39 v -48.39 -48.39 h -48.39 -48.38 v -48.39 -48.39 h 96.77 96.77 v -145.16 -145.16 h 48.39 48.39 v 145.16 145.16 h 48.38 48.39 v -48.38 -48.39 h 96.77 96.78 v 48.39 48.38 h 48.39 48.38 v 96.78 96.78 h 48.39 48.39 v -48.39 -48.39 h 48.38 48.39 v 48.39 48.39 h -48.39 -48.38 v 48.38 48.39 h 48.38 48.39 v 48.39 48.38 h -48.39 -48.38 v -48.38 -48.39 h -241.94 -241.93 v -48.39 -48.38 h -48.39 -48.39 v 96.77 96.77 h -48.38 -48.39 z m 483.87,-193.55 v -48.39 h -96.78 v -96.78 H 1500 1451.61 v 96.78 96.78 h 96.77 96.78 z m -290.32,-96.78 v -48.39 h -96.78 v 96.78 h 48.39 48.39 v -48.39"
         style="fill:#000000;fill-opacity:1;fill-rule:nonzero;stroke:none"
         id="path104"
         inkscape:connector-curvature="0" /><path
         d="m 2032.25,2370.96 v -338.71 h 677.42 v 677.42 h -338.71 -338.71 z m 580.65,0 v -241.93 h -483.87 v 483.87 h 241.93 241.94 v -241.94"
         style="fill:#000000;fill-opacity:1;fill-rule:nonzero;stroke:none"
         id="path106"
         inkscape:connector-curvature="0" /><path
         d="m 1064.52,2129.03 v -96.78 h 96.77 v 193.55 h -48.39 -48.38 v -96.77"
         style="fill:#000000;fill-opacity:1;fill-rule:nonzero;stroke:none"
         id="path108"
         inkscape:connector-curvature="0" /><path
         d="m 1741.93,2177.41 v -48.38 h -96.77 v -193.55 h -48.39 -48.39 v 96.77 96.78 H 1500 1451.61 v -145.16 -145.16 h 96.77 96.78 v -96.78 -96.77 h 96.77 96.78 v 48.39 48.38 h 48.38 48.39 v -96.77 -96.78 h -241.93 -241.94 v 48.39 48.39 h 48.39 48.38 v 48.39 48.38 h -96.77 -96.77 v -48.38 -48.39 h -48.39 -48.39 v 96.77 96.78 h 48.39 48.39 v 48.38 48.39 H 1112.9 870.965 v -48.39 -48.38 h 145.165 145.16 v -48.39 -48.39 h -48.39 -48.38 v -48.38 -48.39 h -48.39 -48.392 v 48.39 48.38 h -96.773 -96.774 v -96.77 -96.78 h -48.386 -48.387 v 48.39 48.39 h -48.387 -48.386 v -96.78 -96.77 h -48.387 -48.387 v 48.39 48.38 h -48.387 -48.386 v 48.39 48.39 H 338.711 290.32 v -96.78 -96.77 h 48.391 48.387 v -193.55 -193.54 h 48.386 48.387 v 48.38 48.39 h 48.387 48.387 v -48.39 -48.38 h 193.546 193.547 v 48.38 48.39 h 48.392 48.39 V 1016.13 870.965 h 48.38 48.39 v 48.387 48.386 h 48.39 48.38 v -96.773 -96.774 h -96.77 -96.77 V 532.258 290.32 h 48.38 48.39 v 48.391 48.387 h 48.39 48.38 V 338.711 290.32 h 193.55 193.55 v 48.391 48.387 h -96.78 -96.77 v 48.386 48.387 h 96.77 96.78 v 48.387 48.387 h -96.78 -96.77 v 48.386 48.387 h 145.16 145.16 v -145.16 -145.16 h 96.78 96.77 V 338.711 290.32 h 48.39 48.38 v 48.391 48.387 h 48.39 48.39 V 338.711 290.32 h 290.32 290.32 v 193.551 193.547 h -96.77 -96.77 v 48.387 48.386 h -48.39 -48.39 v 48.387 48.387 h 145.16 145.16 v 48.387 48.386 h -145.16 -145.16 v 48.392 48.39 h 48.39 48.39 v 48.38 48.39 h -48.39 -48.39 v -48.39 -48.38 h -48.39 -48.39 v 96.77 96.77 h 48.39 48.39 v 96.78 96.77 h 48.39 48.39 v -96.77 -96.78 h 48.38 48.39 v -48.38 -48.39 h 48.39 48.38 v 96.77 96.78 h -48.38 -48.39 v 48.38 48.39 h 48.39 48.38 v 145.16 145.16 h -48.38 -48.39 v 96.78 96.77 h -48.39 -48.38 v -145.16 -145.16 h 48.38 48.39 v -48.39 -48.39 h -96.77 -96.78 V 1500 1451.61 h -48.39 -48.39 v 48.39 48.38 h -96.77 -96.77 v 48.39 48.39 h 145.16 145.16 v 48.39 48.38 h -96.78 -96.77 v 96.78 96.77 h -48.39 -48.38 v -96.77 -96.78 h -96.78 -96.77 v 48.39 48.39 h 48.39 48.38 v 48.38 48.39 h -48.38 -48.39 v -48.39 -48.38 h -48.39 -48.38 v 96.77 96.77 h 48.38 48.39 v 96.78 96.77 h -96.77 -96.78 z m 96.78,-96.77 v -48.39 h -96.78 v 96.78 h 48.39 48.39 z m 0,-290.32 v -48.39 h -96.78 v 96.78 h 48.39 48.39 z M 967.738,1596.77 v -48.39 h 193.552 v -96.77 h -48.39 -48.38 v -48.39 -48.38 h -96.782 -96.773 v -48.39 -48.39 h 48.387 48.386 v -48.38 -48.39 h -145.16 -145.16 v 96.77 96.78 h 48.387 48.386 v 48.38 48.39 h 96.774 96.773 v 48.39 48.38 h -48.386 -48.387 v 48.39 48.39 h 48.387 48.386 z M 1354.84,1500 v -48.39 h 96.77 v -96.77 h 96.77 96.78 v 48.38 48.39 h 96.77 96.78 v -48.39 -48.38 h 96.77 96.77 v 48.38 48.39 h 48.39 48.39 v -48.39 -48.38 h -48.39 -48.39 v -48.39 -48.39 h 48.39 48.39 v -48.38 -48.39 h -48.39 -48.39 v 48.39 48.38 h -48.38 -48.39 v -48.38 -48.39 h -241.93 -241.94 v 48.39 48.38 h -48.39 -48.38 v -48.38 -48.39 h -145.16 -145.16 v 48.39 48.38 h 96.77 96.77 v 48.39 48.39 h 48.39 48.39 v 48.38 48.39 h -48.39 -48.39 v 48.39 48.38 h 48.39 48.39 z m 967.73,-96.78 v -48.38 h -96.77 v 96.77 h 48.39 48.38 z M 580.645,1306.45 v -48.39 h -96.774 v 96.78 h 48.387 48.387 z M 1645.16,919.352 V 774.191 h -96.78 v 96.774 H 1500 1451.61 v -48.387 -48.387 h -48.39 -48.38 v -96.773 -96.773 h 48.38 48.39 v -48.387 -48.387 h -145.16 -145.16 v 48.387 48.387 h 48.39 48.38 v 96.773 96.773 h 48.39 48.39 v 96.774 96.773 h 48.38 48.39 v 48.392 48.39 h 96.77 96.78 z m 580.64,0 V 774.191 h -290.32 v 290.329 h 145.16 145.16 z m -387.09,-48.387 v -96.774 h -96.78 v 193.547 h 48.39 48.39 z m 580.64,48.387 v -48.387 h -96.78 v 96.773 h 48.39 48.39 z m 0,-193.547 v -48.387 h -96.78 v 96.773 h 48.39 48.39 z m -483.87,-96.774 v -48.386 h 193.55 v 96.773 h 48.38 48.39 v -48.387 -48.386 h 48.39 48.38 v -48.387 -48.387 h -145.16 -145.16 v -48.387 -48.386 h -48.38 -48.39 v 96.773 96.774 h -48.39 -48.38 v 48.386 48.387 h 48.38 48.39 z m 677.42,-145.16 v -96.773 h -193.55 v 96.773 h 48.39 48.39 v 48.387 48.387 h 48.38 48.39 v -96.774"
         style="fill:#000000;fill-opacity:1;fill-rule:nonzero;stroke:none"
         id="path110"
         inkscape:connector-curvature="0" /><path
         d="m 290.32,1838.71 v -96.78 h 193.551 v 96.78 h 48.387 48.387 v -48.39 -48.39 h 48.386 48.387 v 48.39 48.39 h 48.387 48.386 v 48.38 48.39 H 532.258 290.32 v -96.77"
         style="fill:#000000;fill-opacity:1;fill-rule:nonzero;stroke:none"
         id="path112"
         inkscape:connector-curvature="0" /><path
         d="m 2322.57,1887.09 v -48.38 h 96.78 v 96.77 h -48.39 -48.39 v -48.39"
         style="fill:#000000;fill-opacity:1;fill-rule:nonzero;stroke:none"
         id="path114"
         inkscape:connector-curvature="0" /><path
         d="M 290.32,629.031 V 290.32 H 967.738 V 967.738 H 629.031 290.32 Z m 580.645,0 V 387.098 H 387.098 V 870.965 H 629.031 870.965 V 629.031"
         style="fill:#000000;fill-opacity:1;fill-rule:nonzero;stroke:none"
         id="path116"
         inkscape:connector-curvature="0" /><path
         d="M 483.871,2370.96 V 2225.8 h 290.32 v 290.33 h -145.16 -145.16 v -145.17"
         style="fill:#000000;fill-opacity:1;fill-rule:nonzero;stroke:none"
         id="path118"
         inkscape:connector-curvature="0" /><path
         d="M 2225.8,2370.96 V 2225.8 h 290.33 v 290.33 H 2370.96 2225.8 v -145.17"
         style="fill:#000000;fill-opacity:1;fill-rule:nonzero;stroke:none"
         id="path120"
         inkscape:connector-curvature="0" /><path
         d="m 1741.93,1306.45 v -48.39 h 96.78 v 96.78 h -48.39 -48.39 v -48.39"
         style="fill:#000000;fill-opacity:1;fill-rule:nonzero;stroke:none"
         id="path122"
         inkscape:connector-curvature="0" /><path
         d="m 2032.25,919.352 v -48.387 h 96.78 v 96.773 h -48.39 -48.39 v -48.386"
         style="fill:#000000;fill-opacity:1;fill-rule:nonzero;stroke:none"
         id="path124"
         inkscape:connector-curvature="0" /><path
         d="m 483.871,629.031 v -145.16 h 290.32 v 290.32 h -145.16 -145.16 v -145.16"
         style="fill:#000000;fill-opacity:1;fill-rule:nonzero;stroke:none"
         id="path126"
         inkscape:connector-curvature="0" /></g></g></svg>